ffmpeg started on 2016-12-06 at 12:26:31
Report written to "Output/x264/results/ffmpeg/sintelfast14000k.log"
Command line:
Tools/ffmpeg/ffmpeg -benchmark -y -i Input/y4m/sintel.y4m -c:v libx264 -preset fast -b:v 14000k -an Output/x264/encoded/sintelfast14000k.mkv
ffmpeg version N-82227-gdb23fde Copyright (c) 2000-2016 the FFmpeg developers
  built with gcc 5.4.0 (Ubuntu 5.4.0-6ubuntu1~16.04.2) 20160609
  configuration: --prefix=/home/jaroslav/ffmpeg_build --pkg-config-flags=--static --extra-cflags=-I/home/jaroslav/ffmpeg_build/include --extra-ldflags=-L/home/jaroslav/ffmpeg_build/lib --bindir=/home/jaroslav/bin --enable-gpl --enable-libass --enable-libfdk-aac --enable-libfreetype --enable-libmp3lame --enable-libopus --enable-libtheora --enable-libvorbis --enable-libvpx --enable-libx264 --enable-libx265 --enable-nvenc --enable-libmfx --enable-libxvid --enable-libgsm --enable-libopencore-amrnb --enable-version3 --enable-nonfree
  libavutil      55. 35.100 / 55. 35.100
  libavcodec     57. 66.101 / 57. 66.101
  libavformat    57. 57.100 / 57. 57.100
  libavdevice    57.  2.100 / 57.  2.100
  libavfilter     6. 66.100 /  6. 66.100
  libswscale      4.  3.100 /  4.  3.100
  libswresample   2.  4.100 /  2.  4.100
  libpostproc    54.  2.100 / 54.  2.100
Input #0, yuv4mpegpipe, from 'Input/y4m/sintel.y4m':
  Duration: 00:00:20.83, start: 0.000000, bitrate: 2057307 kb/s
    Stream #0:0: Video: rawvideo (I420 / 0x30323449), yuv420p(progressive), 4096x1744, SAR 1:1 DAR 256:109, 24 fps, 24 tbr, 24 tbn, 24 tbc
[libx264 @ 0x3d161c0] using SAR=1/1
[libx264 @ 0x3d161c0] using cpu capabilities: MMX2 SSE2Fast SSSE3 SSE4.2 AVX FMA3 AVX2 LZCNT BMI2
[libx264 @ 0x3d161c0] profile High, level 5.1
[libx264 @ 0x3d161c0] 264 - core 148 - H.264/MPEG-4 AVC codec - Copyleft 2003-2016 - http://www.videolan.org/x264.html - options: cabac=1 ref=2 deblock=1:0:0 analyse=0x3:0x113 me=hex subme=6 psy=1 psy_rd=1.00:0.00 mixed_ref=1 me_range=16 chroma_me=1 trellis=1 8x8dct=1 cqm=0 deadzone=21,11 fast_pskip=1 chroma_qp_offset=-2 threads=6 lookahead_threads=1 sliced_threads=0 nr=0 decimate=1 interlaced=0 bluray_compat=0 constrained_intra=0 bframes=3 b_pyramid=2 b_adapt=1 b_bias=0 direct=1 weightb=1 open_gop=0 weightp=1 keyint=250 keyint_min=24 scenecut=40 intra_refresh=0 rc_lookahead=30 rc=abr mbtree=1 bitrate=14000 ratetol=1.0 qcomp=0.60 qpmin=0 qpmax=69 qpstep=4 ip_ratio=1.40 aq=1:1.00
Output #0, matroska, to 'Output/x264/encoded/sintelfast14000k.mkv':
  Metadata:
    encoder         : Lavf57.57.100
    Stream #0:0: Video: h264 (libx264) (H264 / 0x34363248), yuv420p, 4096x1744 [SAR 1:1 DAR 256:109], q=-1--1, 14000 kb/s, 24 fps, 1k tbn, 24 tbc
    Metadata:
      encoder         : Lavc57.66.101 libx264
    Side data:
      cpb: bitrate max/min/avg: 0/0/14000000 buffer size: 0 vbv_delay: -1
Stream mapping:
  Stream #0:0 -> #0:0 (rawvideo (native) -> h264 (libx264))
Press [q] to stop, [?] for help
frame=    9 fps=0.0 q=0.0 size=       0kB time=00:00:00.00 bitrate=N/A speed=   0x    frame=   18 fps= 18 q=0.0 size=       0kB time=00:00:00.00 bitrate=N/A speed=   0x    frame=   27 fps= 17 q=0.0 size=       0kB time=00:00:00.00 bitrate=N/A speed=   0x    frame=   36 fps= 17 q=0.0 size=       0kB time=00:00:00.00 bitrate=N/A speed=   0x    frame=   37 fps=9.9 q=0.0 size=       0kB time=00:00:00.00 bitrate=N/A speed=   0x    frame=   42 fps=9.8 q=22.0 size=       1kB time=-00:00:00.04 bitrate=N/A speed=N/A    frame=   45 fps=5.7 q=26.0 size=       1kB time=00:00:00.08 bitrate=  69.9kbits/s speed=0.0106x    frame=   46 fps=4.1 q=28.0 size=       1kB time=00:00:00.12 bitrate=  46.6kbits/s speed=0.0113x    frame=   51 fps=4.3 q=40.0 size=       1kB time=00:00:00.33 bitrate=  17.6kbits/s speed=0.0279x    frame=   57 fps=4.5 q=39.0 size=       1kB time=00:00:00.58 bitrate=  10.1kbits/s speed=0.0466x    frame=   63 fps=4.8 q=39.0 size=       1kB time=00:00:00.83 bitrate=   7.0kbits/s speed=0.0639x    frame=   67 fps=4.9 q=38.0 size=       1kB time=00:00:01.00 bitrate=   5.9kbits/s speed=0.0735x    frame=   74 fps=5.2 q=38.0 size=       1kB time=00:00:01.29 bitrate=   4.5kbits/s speed=0.0907x    frame=   80 fps=5.4 q=37.0 size=       1kB time=00:00:01.54 bitrate=   3.8kbits/s speed=0.104x    frame=   87 fps=5.6 q=36.0 size=       1kB time=00:00:01.83 bitrate=   3.2kbits/s speed=0.118x    frame=   94 fps=5.8 q=36.0 size=    5161kB time=00:00:02.12 bitrate=19887.4kbits/s speed=0.131x    frame=   99 fps=5.9 q=36.0 size=    5161kB time=00:00:02.33 bitrate=18115.1kbits/s speed=0.139x    frame=  104 fps=6.0 q=35.0 size=    5161kB time=00:00:02.54 bitrate=16626.3kbits/s speed=0.146x    frame=  110 fps=6.1 q=35.0 size=    5161kB time=00:00:02.79 bitrate=15138.1kbits/s speed=0.154x    frame=  116 fps=6.2 q=35.0 size=    5161kB time=00:00:03.04 bitrate=13894.4kbits/s speed=0.163x    frame=  120 fps=6.2 q=34.0 size=    5161kB time=00:00:03.20 bitrate=13175.6kbits/s speed=0.167x    frame=  125 fps=6.3 q=34.0 size=    5161kB time=00:00:03.41 bitrate=12370.0kbits/s speed=0.172x    frame=  130 fps=6.4 q=34.0 size=    5161kB time=00:00:03.62 bitrate=11660.4kbits/s speed=0.178x    frame=  135 fps=6.4 q=34.0 size=    5161kB time=00:00:03.83 bitrate=11027.8kbits/s speed=0.183x    frame=  142 fps=6.5 q=33.0 size=    7342kB time=00:00:04.12 bitrate=14576.4kbits/s speed=0.19x    frame=  147 fps=6.6 q=33.0 size=    7342kB time=00:00:04.33 bitrate=13876.9kbits/s speed=0.195x    frame=  152 fps=6.6 q=33.0 size=    7342kB time=00:00:04.54 bitrate=13238.5kbits/s speed=0.199x    frame=  158 fps=6.7 q=33.0 size=    7342kB time=00:00:04.79 bitrate=12547.9kbits/s speed=0.204x    frame=  163 fps=6.8 q=33.0 size=    7342kB time=00:00:05.00 bitrate=12026.1kbits/s speed=0.208x    frame=  169 fps=6.9 q=33.0 size=    7342kB time=00:00:05.25 bitrate=11453.5kbits/s speed=0.214x    frame=  174 fps=6.9 q=33.0 size=    7342kB time=00:00:05.45 bitrate=11017.1kbits/s speed=0.217x    frame=  179 fps=7.0 q=33.0 size=    7342kB time=00:00:05.66 bitrate=10610.9kbits/s speed=0.22x    frame=  185 fps=7.0 q=33.0 size=    7342kB time=00:00:05.91 bitrate=10162.6kbits/s speed=0.225x    frame=  190 fps=7.1 q=32.0 size=    7342kB time=00:00:06.12 bitrate=9817.6kbits/s speed=0.228x    frame=  197 fps=7.2 q=32.0 size=   10989kB time=00:00:06.41 bitrate=14026.2kbits/s speed=0.234x    frame=  201 fps=7.2 q=32.0 size=   10989kB time=00:00:06.58 bitrate=13672.5kbits/s speed=0.236x    frame=  207 fps=7.3 q=32.0 size=   10989kB time=00:00:06.83 bitrate=13172.4kbits/s speed=0.24x    frame=  212 fps=7.3 q=32.0 size=   10989kB time=00:00:07.04 bitrate=12781.5kbits/s speed=0.242x    frame=  217 fps=7.3 q=32.0 size=   10989kB time=00:00:07.25 bitrate=12414.8kbits/s speed=0.245x    frame=  223 fps=7.4 q=32.0 size=   10989kB time=00:00:07.50 bitrate=12001.1kbits/s speed=0.248x    frame=  230 fps=7.5 q=32.0 size=   12515kB time=00:00:07.79 bitrate=13155.5kbits/s speed=0.253x    frame=  234 fps=7.5 q=31.0 size=   12515kB time=00:00:07.95 bitrate=12881.2kbits/s speed=0.254x    frame=  240 fps=7.5 q=31.0 size=   12515kB time=00:00:08.20 bitrate=12488.9kbits/s speed=0.257x    frame=  245 fps=7.5 q=31.0 size=   12515kB time=00:00:08.41 bitrate=12178.8kbits/s speed=0.259x    frame=  250 fps=7.6 q=31.0 size=   12515kB time=00:00:08.62 bitrate=11885.1kbits/s speed=0.261x    frame=  256 fps=7.6 q=31.0 size=   12515kB time=00:00:08.87 bitrate=11550.4kbits/s speed=0.263x    frame=  260 fps=7.6 q=31.0 size=   12515kB time=00:00:09.04 bitrate=11337.1kbits/s speed=0.264x    frame=  265 fps=7.6 q=31.0 size=   12515kB time=00:00:09.25 bitrate=11082.2kbits/s speed=0.265x    frame=  273 fps=7.7 q=31.0 size=   12515kB time=00:00:09.58 bitrate=10697.1kbits/s speed=0.271x    frame=  277 fps=7.7 q=31.0 size=   12515kB time=00:00:09.75 bitrate=10513.9kbits/s speed=0.271x    frame=  282 fps=7.7 q=31.0 size=   12515kB time=00:00:09.95 bitrate=10294.3kbits/s speed=0.272x    frame=  289 fps=7.8 q=31.0 size=   12515kB time=00:00:10.25 bitrate=10001.1kbits/s speed=0.276x    frame=  293 fps=7.8 q=31.0 size=   12515kB time=00:00:10.41 bitrate=9840.8kbits/s speed=0.277x    frame=  298 fps=7.7 q=31.0 size=   12515kB time=00:00:10.62 bitrate=9648.1kbits/s speed=0.275x    frame=  305 fps=7.8 q=31.0 size=   12515kB time=00:00:10.91 bitrate=9390.1kbits/s speed=0.279x    frame=  313 fps=7.9 q=30.0 size=   17466kB time=00:00:11.25 bitrate=12717.4kbits/s speed=0.283x    frame=  320 fps=7.9 q=30.0 size=   17466kB time=00:00:11.54 bitrate=12395.7kbits/s speed=0.286x    frame=  327 fps=8.0 q=30.0 size=   17466kB time=00:00:11.83 bitrate=12090.8kbits/s speed=0.289x    frame=  332 fps=8.0 q=30.0 size=   17466kB time=00:00:12.04 bitrate=11881.0kbits/s speed=0.29x    frame=  340 fps=8.1 q=30.0 size=   17466kB time=00:00:12.37 bitrate=11561.3kbits/s speed=0.294x    frame=  348 fps=8.2 q=29.0 size=   17466kB time=00:00:12.70 bitrate=11258.4kbits/s speed=0.298x    frame=  357 fps=8.3 q=29.0 size=   17466kB time=00:00:13.08 bitrate=10935.7kbits/s speed=0.303x    frame=  363 fps=8.3 q=29.0 size=   17466kB time=00:00:13.33 bitrate=10730.7kbits/s speed=0.305x    frame=  368 fps=8.3 q=29.0 size=   17466kB time=00:00:13.54 bitrate=10565.1kbits/s speed=0.306x    frame=  376 fps=8.4 q=28.0 size=   17466kB time=00:00:13.87 bitrate=10311.5kbits/s speed=0.31x    frame=  384 fps=8.5 q=28.0 size=   17466kB time=00:00:14.20 bitrate=10069.9kbits/s speed=0.313x    frame=  391 fps=8.5 q=28.0 size=   17466kB time=00:00:14.50 bitrate=9867.1kbits/s speed=0.316x    frame=  397 fps=8.5 q=28.0 size=   17466kB time=00:00:14.75 bitrate=9699.9kbits/s speed=0.318x    frame=  405 fps=8.6 q=27.0 size=   22018kB time=00:00:15.08 bitrate=11958.0kbits/s speed=0.32x    frame=  410 fps=8.6 q=27.0 size=   22018kB time=00:00:15.29 bitrate=11794.5kbits/s speed=0.321x    frame=  414 fps=8.6 q=27.0 size=   22018kB time=00:00:15.45 bitrate=11667.9kbits/s speed=0.321x    frame=  420 fps=8.6 q=27.0 size=   22018kB time=00:00:15.70 bitrate=11482.2kbits/s speed=0.321x    frame=  428 fps=8.6 q=27.0 size=   22018kB time=00:00:16.04 bitrate=11243.1kbits/s speed=0.323x    frame=  434 fps=8.6 q=27.0 size=   22018kB time=00:00:16.29 bitrate=11070.6kbits/s speed=0.325x    frame=  438 fps=8.6 q=27.0 size=   22018kB time=00:00:16.45 bitrate=10959.0kbits/s speed=0.325x    frame=  441 fps=8.6 q=28.0 size=   22018kB time=00:00:16.58 bitrate=10876.4kbits/s speed=0.324x    frame=  447 fps=8.6 q=28.0 size=   22018kB time=00:00:16.83 bitrate=10714.9kbits/s speed=0.324x    frame=  454 fps=8.7 q=25.0 size=   22018kB time=00:00:17.12 bitrate=10532.2kbits/s speed=0.327x    frame=  461 fps=8.7 q=28.0 size=   26205kB time=00:00:17.41 bitrate=12324.5kbits/s speed=0.329x    frame=  466 fps=8.7 q=28.0 size=   26205kB time=00:00:17.62 bitrate=12179.1kbits/s speed=0.329x    frame=  472 fps=8.7 q=28.0 size=   26205kB time=00:00:17.87 bitrate=12008.8kbits/s speed=0.329x    frame=  480 fps=8.7 q=28.0 size=   26205kB time=00:00:18.20 bitrate=11789.2kbits/s speed=0.331x    frame=  487 fps=8.8 q=28.0 size=   26205kB time=00:00:18.50 bitrate=11603.1kbits/s speed=0.334x    frame=  493 fps=8.8 q=28.0 size=   26205kB time=00:00:18.75 bitrate=11448.4kbits/s speed=0.334x    frame=  498 fps=8.8 q=28.0 size=   26205kB time=00:00:18.95 bitrate=11322.8kbits/s speed=0.335x    frame=  500 fps=8.4 q=-1.0 Lsize=   32213kB time=00:00:20.70 bitrate=12742.9kbits/s speed=0.346x    
video:32208kB audio:0kB subtitle:0kB other streams:0kB global headers:0kB muxing overhead: 0.015366%
bench: utime=192.716s
bench: maxrss=1329284kB
[libx264 @ 0x3d161c0] frame I:8     Avg QP:21.99  size:211343
[libx264 @ 0x3d161c0] frame P:269   Avg QP:27.30  size: 75274
[libx264 @ 0x3d161c0] frame B:223   Avg QP:24.86  size: 49513
[libx264 @ 0x3d161c0] consecutive B-frames: 37.0%  8.4%  6.6% 48.0%
[libx264 @ 0x3d161c0] mb I  I16..4: 19.0% 74.0%  7.0%
[libx264 @ 0x3d161c0] mb P  I16..4: 17.4% 24.8%  0.7%  P16..4: 28.5%  4.6%  1.5%  0.0%  0.0%    skip:22.6%
[libx264 @ 0x3d161c0] mb B  I16..4:  6.7%  7.8%  0.9%  B16..8: 21.2%  4.0%  0.2%  direct:11.8%  skip:47.4%  L0:43.7% L1:49.2% BI: 7.1%
[libx264 @ 0x3d161c0] final ratefactor: 24.34
[libx264 @ 0x3d161c0] 8x8 transform intra:57.1% inter:82.6%
[libx264 @ 0x3d161c0] coded y,uvDC,uvAC intra: 23.7% 31.9% 3.9% inter: 11.4% 13.4% 0.2%
[libx264 @ 0x3d161c0] i16 v,h,dc,p: 29% 28% 10% 33%
[libx264 @ 0x3d161c0] i8 v,h,dc,ddl,ddr,vr,hd,vl,hu: 24% 21% 29%  4%  4%  4%  5%  4%  4%
[libx264 @ 0x3d161c0] i4 v,h,dc,ddl,ddr,vr,hd,vl,hu: 18% 23% 10%  7% 10%  8% 11%  5%  8%
[libx264 @ 0x3d161c0] i8c dc,h,v,p: 65% 17% 15%  3%
[libx264 @ 0x3d161c0] Weighted P-Frames: Y:0.7% UV:0.0%
[libx264 @ 0x3d161c0] ref P L0: 85.8% 14.2%
[libx264 @ 0x3d161c0] ref B L0: 87.6% 12.4%
[libx264 @ 0x3d161c0] ref B L1: 96.9%  3.1%
[libx264 @ 0x3d161c0] kb/s:12664.62
